<svg width="48" height="63" viewBox="0 0 48 63" fill="none" xmlns="http://www.w3.org/2000/svg">
<path d="M22.5472 6.66359L22.5472 6.66359C24.0236 6.55501 25.4526 7.02729 26.5729 7.99407C27.6935 8.961 28.3695 10.3052 28.4776 11.7813C28.5112 12.2411 28.4014 13.1653 27.1134 16.4306C26.6478 17.6112 26.1531 18.7799 25.7815 19.6383L25.6706 19.8945L25.9374 19.9766C28.4832 20.7599 30.7043 22.5659 31.9318 25.156C33.225 27.8847 35.4602 34.9684 36.8012 41.6352C37.5493 45.3543 37.9251 48.4374 37.9229 50.8032L38.1729 50.8034L37.9229 50.8032C37.9215 52.4017 37.7426 53.6517 37.3935 54.5798C37.0462 55.5031 36.536 56.0954 35.8722 56.41C35.2083 56.7246 34.4269 56.7444 33.4923 56.4285C32.5529 56.111 31.4721 55.4579 30.2341 54.4468L30.0947 54.6174L30.2341 54.4468C28.4016 52.9504 26.2533 50.7073 23.8486 47.7733C19.5378 42.5137 15.4706 36.2982 14.1776 33.5694C12.9502 30.9794 12.9588 28.1167 13.9646 25.6503L14.07 25.3918L13.8016 25.3154C12.9021 25.0595 11.6844 24.7025 10.4755 24.3151L10.4755 24.3151C7.13255 23.2443 6.34773 22.744 6.01334 22.4271C4.93909 21.4086 4.32687 20.0341 4.28811 18.5547L4.28811 18.5547C4.24931 17.0753 4.7886 15.6703 5.80753 14.5964L5.80755 14.5964C6.66818 13.6891 7.77519 13.1159 8.97111 12.9318L9.22956 12.8921L9.17823 12.6357C8.69102 10.2021 9.89698 7.65106 12.2394 6.54101C14.5819 5.4309 17.3203 6.1128 18.8953 8.03083L19.0612 8.2329L19.2556 8.05808C20.1554 7.24907 21.3001 6.75519 22.5472 6.66359ZM19.9492 20.0422L20.15 19.9751L20.1169 19.766C19.8415 18.0264 19.4973 15.8959 19.1446 14.037C18.9684 13.1076 18.7895 12.2437 18.6156 11.5292C18.4432 10.8208 18.2713 10.2402 18.1053 9.88973C17.1929 7.96449 14.8835 7.14181 12.9568 8.05484C11.0303 8.96779 10.2049 11.2761 11.1172 13.2013C11.2784 13.5415 11.6033 14.0204 12.0259 14.58C12.452 15.1443 12.9892 15.8058 13.5863 16.5159C14.7808 17.9361 16.2221 19.5584 17.5093 20.9988L17.6498 21.1561L17.8285 21.044C18.1535 20.8402 18.493 20.6529 18.8476 20.4849C19.2098 20.3132 19.5777 20.1664 19.9492 20.0422ZM7.02292 15.7494L7.0229 15.7494C6.31253 16.4981 5.93577 17.4796 5.96283 18.5108C5.98979 19.5419 6.41737 20.5018 7.16577 21.2114L7.17131 21.2166L7.17715 21.2215C7.31901 21.3405 7.60339 21.484 7.98002 21.6452C8.36843 21.8115 8.88681 22.0096 9.52411 22.2329C10.7993 22.6798 12.5602 23.2314 14.7296 23.8371L14.9006 23.8849L15.002 23.7391C15.3432 23.2488 15.7311 22.7874 16.1624 22.362L16.3317 22.195L16.1733 22.0175C13.2457 18.738 11.0436 16.2105 10.0297 14.6565L9.95562 14.543L9.82011 14.5431C8.76286 14.5439 7.76129 14.9713 7.02292 15.7494ZM27.1408 48.5711L26.8397 48.7138L25.3377 46.5529L25.1443 46.7114C25.1443 46.7114 25.1443 46.7114 25.1443 46.7114C25.2938 46.8939 25.4409 47.0715 25.5866 47.2463L25.7106 47.3951L25.8857 47.3121L29.4661 45.6154C29.8842 45.4172 30.3836 45.5955 30.5817 46.0136C30.7798 46.4316 30.6015 46.9311 30.1835 47.1292L27.1408 48.5711ZM23.8012 19.5692L23.9782 19.5831L24.0496 19.4204C24.9545 17.3577 25.6427 15.6453 26.1042 14.374C26.3348 13.7387 26.5098 13.2111 26.627 12.8039C26.7406 12.4086 26.8094 12.0962 26.807 11.909L26.557 11.9122L26.8064 11.8939C26.7316 10.8746 26.2592 9.93598 25.4784 9.26251C24.6974 8.58859 23.6992 8.25869 22.6699 8.33439C21.6002 8.41306 20.6351 8.91773 19.965 9.73564L19.879 9.84058L19.9201 9.96986C20.5053 11.8095 21.1023 15.294 21.7521 19.3834L21.7892 19.6175L22.025 19.5928C22.6192 19.5307 23.2136 19.5234 23.8012 19.5692Z" fill="black" stroke="#F5FAFF" stroke-width="0.5"/>
<path d="M21.6324 29.0468C22.0504 28.8486 22.5499 29.0269 22.748 29.445C22.9461 29.863 22.7678 30.3625 22.3498 30.5606L18.8722 32.2086C18.4542 32.4067 17.9547 32.2284 17.7566 31.8104C17.5585 31.3923 17.7368 30.8928 18.1548 30.6947L21.6324 29.0468Z" fill="black" stroke="#F5FAFF" stroke-width="0.5"/>
<path d="M24.6739 36.3945L30.2384 33.7576C30.6564 33.5594 31.1559 33.7377 31.354 34.1558C31.5521 34.5738 31.3738 35.0733 30.9558 35.2714L25.3913 37.9084C24.9732 38.1065 24.4738 37.9282 24.2757 37.5101C24.0775 37.0921 24.2558 36.5926 24.6739 36.3945Z" fill="black" stroke="#F5FAFF" stroke-width="0.5"/>
</svg>
