<svg width="38" height="38" viewBox="0 0 38 38" fill="none" xmlns="http://www.w3.org/2000/svg">
<path d="M32.2604 22.3225L32.2603 22.3225C31.6516 22.5686 31.3576 23.2615 31.6037 23.8702L33.2982 28.0619L33.529 28.6327L32.9656 28.3843L27.9329 26.1658C27.6319 26.0331 27.2893 26.031 26.9868 26.1601L26.8887 25.9302L26.9868 26.1601C25.2351 26.9075 23.3591 27.2861 21.4123 27.2861C13.5762 27.2861 8.28514 21.1478 8.28514 15.3721C8.28514 8.7798 14.1976 3.45812 21.4123 3.45812C28.6271 3.45812 34.5395 8.7798 34.5395 15.3721C34.5395 15.8874 34.4917 16.5006 34.4087 17.0573L34.1614 17.0205L34.4087 17.0574C34.3118 17.7067 34.7596 18.3116 35.409 18.4085L35.4091 18.4086C36.0584 18.5057 36.6634 18.0576 36.7602 17.4082C36.8615 16.7295 36.9171 16.0057 36.9171 15.3721C36.9171 11.5371 35.294 7.93563 32.3378 5.23011C29.4161 2.55592 25.537 1.08054 21.4123 1.08054C17.2877 1.08054 13.4086 2.55592 10.4868 5.23004C7.84494 7.64801 6.2692 10.7815 5.96352 14.1567L5.95269 14.2762L5.85257 14.3425C2.53967 16.5364 0.584032 20.0452 0.584032 23.817C0.584032 26.1747 1.32631 28.4116 2.74191 30.3391L2.82446 30.4515L2.7722 30.5808L0.670698 35.7793L0.43896 35.6856L0.670692 35.7793C0.489348 36.2278 0.59794 36.7415 0.945359 37.0783L0.945401 37.0783C1.17173 37.2978 1.46992 37.4137 1.77302 37.4137L32.2604 22.3225ZM32.2604 22.3225C32.869 22.0764 33.5619 22.3705 33.808 22.9791L36.8304 30.4557C37.0118 30.9043 36.9032 31.418 36.5558 31.7548L36.7298 31.9343L36.5558 31.7548C36.3294 31.9742 36.0311 32.0901 35.728 32.0902C35.5662 32.0902 35.4031 32.0571 35.2487 31.9891L27.5296 28.5864L27.4355 28.5449L27.3394 28.5816C26.3851 28.9464 25.4018 29.2193 24.3956 29.4L24.2848 29.4199L24.2262 29.5162C23.2023 31.2002 21.7406 32.6282 19.961 33.6687C17.9744 34.8301 15.6789 35.4516 13.3159 35.4695L13.3077 35.4696L13.2995 35.4702L13.2954 35.4705C13.2594 35.4731 13.2351 35.4749 13.2111 35.4749C11.5772 35.4749 9.99553 35.1927 8.49977 34.636L8.40462 34.6006L8.31172 34.6415L2.25232 37.3126L2.25228 37.3126M32.2604 22.3225L2.25228 37.3126M2.25228 37.3126C2.09813 37.3806 1.93501 37.4136 1.77311 37.4137L2.25228 37.3126ZM13.1517 33.0966L13.1517 33.0969L13.1631 33.0964C13.1982 33.095 13.1982 33.0942 13.2024 33.0938C13.204 33.0937 13.2063 33.0937 13.2113 33.0937C16.1093 33.0937 18.8508 31.9619 20.7703 30.0725L21.1777 29.6715L20.6066 29.6446C16.6789 29.46 13.0458 27.9273 10.3006 25.2853C8.0941 23.1616 6.63408 20.4607 6.11705 17.6422L6.03237 17.1806L5.69652 17.5084C3.9594 19.2041 2.96162 21.4458 2.96162 23.817C2.96162 25.888 3.70062 27.8469 5.09249 29.4799L5.28276 29.3177L5.0925 29.4799C5.37983 29.8169 5.45597 30.2859 5.28996 30.6966L4.20303 33.3853L3.97228 33.9561L4.53564 33.7078L7.90508 32.2225L7.90511 32.2225C8.20612 32.0898 8.54865 32.0877 8.85106 32.2168L8.85112 32.2169C10.2031 32.7937 11.6502 33.089 13.1517 33.0966Z" fill="#020202" stroke="#F5FAFF" stroke-width="0.5"/>
<path d="M21.3402 16.873C22.1348 16.873 22.779 16.2289 22.779 15.4342C22.779 14.6396 22.1348 13.9955 21.3402 13.9955C20.5455 13.9955 19.9014 14.6396 19.9014 15.4342C19.9014 16.2289 20.5455 16.873 21.3402 16.873Z" fill="#020202"/>
<path d="M27.098 16.873C27.8926 16.873 28.5368 16.2289 28.5368 15.4342C28.5368 14.6396 27.8926 13.9955 27.098 13.9955C26.3033 13.9955 25.6592 14.6396 25.6592 15.4342C25.6592 16.2289 26.3033 16.873 27.098 16.873Z" fill="#020202"/>
<path d="M15.5853 16.873C16.3799 16.873 17.0241 16.2289 17.0241 15.4342C17.0241 14.6396 16.3799 13.9955 15.5853 13.9955C14.7907 13.9955 14.1465 14.6396 14.1465 15.4342C14.1465 16.2289 14.7907 16.873 15.5853 16.873Z" fill="#020202"/>
</svg>
